<?xml version="1.0" encoding="utf-8"?>
<!-- Generator: Adobe Illustrator 23.0.3, SVG Export Plug-In . SVG Version: 6.00 Build 0)  -->
<svg version="1.2" baseProfile="tiny" xmlns="http://www.w3.org/2000/svg" xmlns:xlink="http://www.w3.org/1999/xlink" x="0px"
	 y="0px" viewBox="0 0 419.7 104.9" xml:space="preserve">
<g id="circulosBlancos">
	<circle fill="#FFFFFF" cx="52.4" cy="52.4" r="52.4"/>
	<circle fill="#FFFFFF" cx="157.2" cy="52.4" r="52.4"/>
	<circle fill="#FFFFFF" cx="262.4" cy="52.4" r="52.4"/>
	<circle fill="#FFFFFF" cx="367.2" cy="52.4" r="52.4"/>
</g>
<g id="facebook">
	<path fill="#3B5998" d="M52.9,4.6C26.4,4.6,5,26,5,52.4c0,22.9,16.1,42.1,37.6,46.7V65.8H30V49.1h12.6V34.6
		c0-8.2,6.6-14.8,14.8-14.8h14.5v16.7H59.3v12.6h12.6v16.7H59.3v34c23.4-3.1,41.4-23.2,41.4-47.4C100.7,26,79.3,4.6,52.9,4.6z"/>
</g>
<g id="insta">
	<g>
		<linearGradient id="SVGID_1_" gradientUnits="userSpaceOnUse" x1="148.8962" y1="81.4543" x2="168.0171" y2="24.3831">
			<stop  offset="0" style="stop-color:#FEDA75"/>
			<stop  offset="0.2039" style="stop-color:#FA7E1E"/>
			<stop  offset="0.5223" style="stop-color:#D62976"/>
			<stop  offset="0.7905" style="stop-color:#962FBF"/>
			<stop  offset="0.9944" style="stop-color:#4F5BD5"/>
		</linearGradient>
		<path fill="url(#SVGID_1_)" d="M170.3,25.2H147c-8.5,0-15.4,6.9-15.4,15.4v23.3c0,8.5,6.9,15.4,15.4,15.4h23.3
			c8.5,0,15.4-6.9,15.4-15.4V40.6C185.7,32.1,178.8,25.2,170.3,25.2z M157.7,69.4c-9.4,0-17-7.6-17-17c0-9.4,7.6-17,17-17
			c9.4,0,17,7.6,17,17C174.7,61.7,167.1,69.4,157.7,69.4z M175,39.7c-2.7,0-4.9-2.2-4.9-4.9c0-2.7,2.2-4.9,4.9-4.9
			c2.7,0,4.9,2.2,4.9,4.9C179.9,37.5,177.7,39.7,175,39.7z"/>
		<linearGradient id="SVGID_2_" gradientUnits="userSpaceOnUse" x1="154.0896" y1="63.0422" x2="161.1102" y2="42.0875">
			<stop  offset="0" style="stop-color:#FEDA75"/>
			<stop  offset="0.2039" style="stop-color:#FA7E1E"/>
			<stop  offset="0.5223" style="stop-color:#D62976"/>
			<stop  offset="0.7905" style="stop-color:#962FBF"/>
			<stop  offset="0.9944" style="stop-color:#4F5BD5"/>
		</linearGradient>
		<path fill="url(#SVGID_2_)" d="M157.7,41.3c-6.1,0-11,5-11,11c0,6.1,5,11,11,11s11-5,11-11C168.7,46.2,163.8,41.3,157.7,41.3z"/>
		<linearGradient id="SVGID_3_" gradientUnits="userSpaceOnUse" x1="142.0926" y1="98.8996" x2="172.5052" y2="8.1255">
			<stop  offset="0" style="stop-color:#FEDA75"/>
			<stop  offset="0.2039" style="stop-color:#FA7E1E"/>
			<stop  offset="0.5223" style="stop-color:#D62976"/>
			<stop  offset="0.7905" style="stop-color:#962FBF"/>
			<stop  offset="0.9944" style="stop-color:#4F5BD5"/>
		</linearGradient>
		<path fill="url(#SVGID_3_)" d="M157.7,4.6c-26.4,0-47.9,21.4-47.9,47.9s21.4,47.9,47.9,47.9c26.4,0,47.9-21.4,47.9-47.9
			S184.1,4.6,157.7,4.6z M170.3,85.2H147c-11.8,0-21.4-9.6-21.4-21.4V40.6c0-11.8,9.6-21.4,21.4-21.4h23.3
			c11.8,0,21.4,9.6,21.4,21.4v23.3C191.7,75.7,182.1,85.2,170.3,85.2z"/>
	</g>
</g>
<g id="twit">
	<path fill="#00ACEE" d="M262.4,4.6c-26.4,0-47.9,21.4-47.9,47.9s21.4,47.9,47.9,47.9s47.9-21.4,47.9-47.9S288.9,4.6,262.4,4.6z
		 M291.3,37.6c-1.4,1.6-3.1,2.2-3.8,2.4c0.1,2.9,0,13.8-8,23.7c-1.5,1.9-8.9,10.6-21.8,13c-15.3,2.8-26.7-5.4-28.6-6.8
		c2.4,0.4,6.5,0.9,11.3-0.3c3.2-0.8,5.6-2,7.4-3.1c-1.5-0.2-5.2-0.8-8.5-3.8c-2.2-2-3.3-4.2-3.8-5.5c0.8,0.4,2.1,0.9,3.7,1
		c1.4,0.1,2.5-0.1,3.3-0.3c-1.5-0.6-4.7-2.1-7.5-5.5c-2.6-3.2-3.4-6.4-3.7-8c0.2,0.3,1.1,1.6,2.9,2.1c1.7,0.5,3.1-0.1,3.5-0.2
		c-1.1-1.2-3.1-3.7-4.2-7.4c-1.4-5.1-0.1-9.4,0.4-11c1.5,2.4,5.4,7.6,12.5,11c6.1,2.9,11.6,3.1,14.4,3c-1.2-6,1.9-12,7.4-14.4
		c5-2.2,10.9-0.9,14.7,3.3c0.7,0,2.4,0,4.2-0.9c1.8-0.9,2.8-2.2,3.2-2.9c0.1,0.3,1,2.2,0.1,4.3c-1,2.2-3.1,2.8-3.4,2.9
		c0.7,0,1.7-0.1,2.8-0.4c1.7-0.5,2.9-1.4,3.5-2C293.2,32.2,293.4,35.1,291.3,37.6z"/>
</g>
<g id="you">
	<g>
		<polygon fill="#FF0000" points="361.1,60.1 376.9,51.8 361.1,43.5 		"/>
		<path fill="#FF0000" d="M367.2,4.6c-26.4,0-47.9,21.4-47.9,47.9s21.4,47.9,47.9,47.9c26.4,0,47.9-21.4,47.9-47.9
			S393.6,4.6,367.2,4.6z M395,60.1c0,6.3-5.1,11.4-11.4,11.4h-32.9c-6.3,0-11.4-5.1-11.4-11.4V43c0-6.3,5.1-11.4,11.4-11.4h32.9
			c6.3,0,11.4,5.1,11.4,11.4V60.1z"/>
	</g>
</g>
</svg>
