<?xml version="1.0" encoding="utf-8"?>
<svg version="1.1" id="LogoSpar" xmlns="http://www.w3.org/2000/svg" xmlns:xlink="http://www.w3.org/1999/xlink" x="0px" y="0px"
	 viewBox="0 0 1049.5 237.8" style="enable-background:new 0 0 1049.5 237.8;" xml:space="preserve">
<style type="text/css">
	.st0{fill:#FFFFFF;}
	.st1{fill:#157946;}
	.st2{fill:#EC1B24;}
</style>
<rect id="BG_2_" y="-1" class="st0" width="1049.5" height="241.9"/>
<path id="Icono_2_" class="st1" d="M949.1,17.8c-46.4,0-82.6,36.9-82.6,82.6c0,29.7,15,56.3,41.3,69.3c24.8,12.2,57.8,12.2,82.6,0
	c24.5-12.1,41.2-39.6,41.2-69.3C1031.7,54.9,995.4,17.8,949.1,17.8z M1005,135.3c-9,14.6-22.8,19.8-33.5,19.9
	c-7.3,0.1-14.1-5.3-14.1-14.1v-12.2h43.5c-18.7-20.2-43.5-61.5-51.7-89.7c-8.3,28.2-33.1,69.5-51.1,89.7h42.8l0.1,12.3
	c-0.1,7-5.6,14.2-13.7,14.1c-11.2-0.1-25.2-5.3-33.6-19.7c-6.2-10.5-10.6-18.7-10.6-35.3c0-36.1,29.1-66.1,66.1-66.1
	c36.6,0,66.1,30.8,66.1,66.1C1015.3,116.9,1007.5,131.2,1005,135.3z"/>
<g id="SPAR">
	<path class="st2" d="M593.5,72.3c-1.5,0-2.1,0.8-3.2,2.1c-1.7,2.2-21.1,30.9-21.3,30.9h49.1c-0.1,0-18.8-27-21.5-31
		C595.3,72.5,594.8,72.3,593.5,72.3z"/>
	<path class="st2" d="M17.8,20.9v154.8l810.2,0V20.9L17.8,20.9z M328.6,144.7h-71c-21.1,0-19.9-20.1-19.9-20.1h88
		c3.5,0,8.7-3.5,8.7-8.7c0-5-4.6-8.8-7.9-8.8H267c-16.9,0-30-12.5-30-29.5c0-19.1,16.4-28.7,26-28.7h69.8
		c17.3,0,18.9,19.9,18.9,19.9h-85.9c-4.3,0-8.2,3.2-8.2,8.8c0,6.4,4.8,9.4,7.9,9.4h60.7c12,0,29.1,10,29.1,27.3
		C355.4,136.7,335.5,144.7,328.6,144.7z M513.4,80.5c0,11.4-7.1,21.4-17.1,26.2c0,0-5.2,1.7-10,2.3H441c-8,0-18.3-6.5-18.3-20.6H483
		c3.3-0.1,8.8-3,8.8-9.2c0-5.8-5.1-9.7-8.6-9.7l-67.2,0l0,63.8c0,7-5.3,11.7-11.1,11.7c-5.5,0-10.9-4.8-10.9-11.4v-65
		c0-10.9,11.5-19.7,19.5-19.7h72.1c10.9,0,27.9,8.9,27.9,30.3V80.5z M657.9,142.1c-3.9,3.3-10.9,3.6-14.7-1.4l-11.6-16.1h-76.4
		l-11.6,16.4c-4.1,4.9-9.1,4.9-13.6,1.8c-4.7-3.1-5.9-9.2-3-13.5l48.9-69.8c6.2-8.6,11.1-10.9,17.8-10.9c7,0,11.3,2.6,17.8,10.9
		L660,129C662.6,132.6,662.3,138.4,657.9,142.1z M807.5,141.8c-4.2,3.8-11.2,4.2-14.7,0.2c-4.9-5.7-10.6-13.2-26.2-33h-28.2
		c-8,0-18.9-6.4-18.9-20.4h60.9c3.3-0.1,8.6-3.3,8.6-9.5c0-5.8-5.1-9.7-8.6-9.7h-67.3l0.1,63.8c0,7-5.3,11.7-11.1,11.7
		c-5.5,0-10.9-4.8-10.9-11.4v-65c0-10.9,11.5-19.7,19.5-19.7h72.1c10.9,0,27.9,8.9,27.9,30.3v1.4c0,11.4-7.1,21.4-17.1,26.2
		c0,0,0.7,1.1,16.2,22.1C811.8,131.4,811.9,137.9,807.5,141.8z"/>
</g>
<g id="GranCanaria">
	<g>
		<g>
			<path class="st1" d="M264.2,188.7c4.3,0,8.6,0,12.9,0c2.9,0,4.8,1.3,4.8,4.4c0,3.1-2.2,3.7-4.8,3.7c-7.8,0-15.6,0.1-23.3-0.1
				c-4.5-0.1-6.2,1.7-6.2,6.1c0.1,16.1-0.8,13.4,13,13.6c3.6,0.1,7.3,0,10.9,0c2.8,0.1,4.7-1.2,4.7-3.9c-0.1-2.6-2-4-4.7-4
				c-4.5,0-8.9-0.1-13.4,0c-2.1,0-3.9-0.4-5.5-1.9c-1.2-1.2-2.3-2.7-1.7-4.4c0.6-1.6,2.3-0.7,3.5-0.7c6.1-0.1,12.2-0.1,18.4,0
				c6.7,0.1,11.9,5.1,11.9,11.4c0,6.2-5.3,11.3-11.9,11.4c-7.3,0.1-14.6,0.1-21.8,0c-6.1-0.1-10.2-4.2-10.3-10.3
				c-0.1-4.8-0.1-9.6-0.1-14.4c0-6.5,4.2-10.7,10.8-11C255.6,188.6,259.9,188.7,264.2,188.7z"/>
			<path class="st1" d="M712.2,188.7c4,0,7.9-0.1,11.9,0c5.2,0.1,9.9,3,11.3,7.3c1.7,5,0.9,9.5-3.4,12.9c-1.9,1.5-2,2.6-0.3,4.3
				c1.4,1.4,2.6,3,3.6,4.7c1.2,2,1.4,4.2-0.6,5.8c-2.1,1.6-4,0.9-5.5-1.1c-0.1-0.1-0.2-0.2-0.3-0.4c-4.4-8.3-10.9-12.7-20.7-10.7
				c-1.9,0.4-3.6-0.7-4.7-2.2c-0.9-1.1-2.1-2.5-1.3-4c0.7-1.5,2.3-0.7,3.5-0.7c5.6-0.1,11.2-0.1,16.9,0c3,0,5.5-0.8,5.5-4.2
				c0-3.3-2.6-3.7-5.3-3.7c-6.6,0.1-13.2,0.2-19.8-0.1c-3.5-0.2-4.1,1.2-4,4.2c0.2,6.1,0.1,12.2,0,18.3c0,2.9-0.7,5.4-4.3,5.3
				c-3.5-0.1-3.6-2.7-3.6-5.3c0-7.1-0.1-14.2,0-21.3c0.1-5.5,3.4-8.9,8.9-9.1C703.9,188.6,708.1,188.7,712.2,188.7z"/>
			<path class="st1" d="M314,188.7c4,0,7.9-0.1,11.9,0c5.8,0.1,9.6,2.6,11.5,7.6c2,5.1,0.6,9.5-3.6,12.7c-2.1,1.6-1.3,2.5-0.3,4
				c1.4,1.9,2.8,3.7,4.1,5.6c1.4,2.1,0.4,3.9-1.3,5.2c-1.7,1.3-3.4,0.9-4.8-0.7c-0.2-0.2-0.5-0.5-0.6-0.8
				c-4.4-8.8-11.2-12.7-21.1-10.9c-1.9,0.4-3.5-1-4.5-2.5c-0.7-1-1.6-2.5-1.4-3.5c0.3-1.7,2.2-0.9,3.4-0.9c5.6-0.1,11.2-0.1,16.9,0
				c3.1,0,6.1-0.7,6.1-4.2c0-3.4-2.9-3.8-5.8-3.7c-6.3,0.1-12.6,0.2-18.9-0.1c-3.6-0.2-5,0.7-4.8,4.6c0.3,6.1,0.1,12.2,0,18.4
				c0,2.6-0.5,5.1-4,5c-3.4-0.1-4-2.6-4-5.2c-0.1-7.1-0.2-14.2,0-21.3c0.1-5.7,3.7-9.1,9.4-9.2C306.1,188.6,310.1,188.7,314,188.7z"
				/>
			<path class="st1" d="M811.1,219.8c0.1,2.5-1.1,3.7-2.6,4.3c-1.7,0.7-3.6,0.1-4.3-1.5c-2.7-6.7-8.2-6.5-13.9-6.2
				c-3.5,0.2-7,0.2-10.4,0c-5.5-0.4-10.4-0.1-13.1,5.9c-1,2.2-3.2,2.9-5.4,1.2c-2-1.6-2.2-3.6-0.7-5.6c6.3-8.9,12.5-17.9,19.1-26.5
				c3-3.9,8.7-3.8,11.7,0.1c6.4,8.6,12.5,17.4,18.7,26.2C810.6,218.4,810.9,219.4,811.1,219.8z M794.8,209.4
				c-2.8-4-5.2-7.2-7.6-10.5c-1.1-1.5-2.3-1.9-3.5-0.2c-2.4,3.4-4.8,6.9-7.5,10.7C782.6,209.4,788.2,209.4,794.8,209.4z"/>
			<path class="st1" d="M395.8,219.6c0.3,2.6-0.8,3.8-2.4,4.5c-1.7,0.8-3.6,0.1-4.3-1.5c-2.7-6.6-8.1-6.5-13.9-6.2
				c-3.5,0.2-7,0.3-10.4,0c-5.5-0.4-10.4-0.1-13.2,5.8c-1,2.1-3.1,3-5.4,1.3c-2.1-1.6-2.1-3.8-0.8-5.7c6.2-8.9,12.5-17.8,19.1-26.5
				c3-4,8.6-4,11.6,0c6.5,8.7,12.7,17.6,18.9,26.5C395.6,218.6,395.8,219.4,395.8,219.6z M379.7,209.3c-2.8-4-5.2-7.1-7.4-10.3
				c-1.3-1.9-2.6-1.9-3.9-0.1c-2.3,3.3-4.6,6.7-7.2,10.4C367.5,209.3,373.1,209.3,379.7,209.3z"/>
			<path class="st1" d="M683.9,219.4c0.4,2.7-0.6,3.8-2,4.5c-1.8,1-3.7,0.4-4.3-1.2c-3-7.5-9.3-6.5-15.4-6.3c-3.3,0.1-6.6,0.3-9.9,0
				c-5.3-0.5-9.7,0.2-12.3,5.7c-1,2.1-3,3.2-5.4,1.5c-2.2-1.6-2.2-4-0.9-5.7c6.3-9.1,12.7-18.1,19.4-26.8c2.9-3.8,8.2-3.5,11.2,0.4
				c6.5,8.5,12.6,17.3,18.8,26.1C683.8,218.3,683.9,219.4,683.9,219.4z M667.8,209.3c-2.7-3.9-5-7.1-7.2-10.3
				c-1.3-1.8-2.6-2-3.9-0.1c-2.3,3.3-4.6,6.6-7.3,10.5C655.8,209.3,661.3,209.3,667.8,209.3z"/>
			<path class="st1" d="M554.1,188.7c2.2,0,4.4,1.7,6.1,4.1c5.6,7.9,11.3,15.8,16.9,23.7c1.7,2.4,3,5.1-0.2,7.3
				c-2.9,2-4.7-0.3-5.9-2.5c-2.1-4.1-5.3-5.1-9.7-4.8c-5.8,0.4-11.6,0.3-17.3,0c-3.7-0.2-6.2,0.6-8.1,4c-1.3,2.2-3,5.6-6.5,3.2
				c-3.3-2.3-1.7-5,0.2-7.6c5.4-7.4,10.7-15,16-22.5C547.6,190.9,549.7,188.7,554.1,188.7z M562.5,209.3c-2.8-4-5.2-7.1-7.4-10.4
				c-1.3-2-2.7-1.8-3.8-0.1c-2.1,3.4-5.1,6.3-6.7,10.4C550.5,209.3,556.1,209.3,562.5,209.3z"/>
			<path class="st1" d="M435.7,211.4c0-2.8-0.2-5.6,0-8.4c0.4-4.5-1.4-6.4-5.9-6.2c-4.8,0.2-9.6,0.1-14.4,0c-3.3,0-4.8,1.5-4.8,4.8
				c0.1,6.4,0,12.9,0,19.3c0,1.1,0.6,2.4-0.6,3.1c-1.4,0.8-2.6-0.3-3.6-1c-2.6-1.5-3-4.3-3.1-6.9c-0.2-5.8-0.3-11.6,0-17.4
				c0.2-5.7,4.5-9.9,10.1-10.2c6.6-0.2,13.2-0.3,19.8,0c5.7,0.2,9.7,4.6,9.8,10.4c0.1,5.8,0,11.6,0,17.4c0,1.6-0.2,3.3-1.2,4.7
				c-1.2,1.9-3,3.5-5.2,2.9c-2-0.5-0.8-2.8-0.9-4.3C435.6,217,435.7,214.2,435.7,211.4z"/>
			<path class="st1" d="M519.6,195.8c-8.2,0-16.2,0-24.3,0c-6.5,0-7.1,0.6-7.1,7c0,3.1,0.1,6.3,0,9.4c-0.2,3.9,1.7,5.3,5.4,5.2
				c7.8-0.1,15.5,0.1,23.3-0.1c3.5-0.1,3,1.6,2,3.4c-1.3,2.2-3.2,3.6-6,3.6c-7.8-0.1-15.5,0.1-23.3-0.1c-5-0.1-9-4-9.1-9.1
				c-0.2-5.6-0.2-11.2,0-16.9c0.1-5.3,4.4-9.6,9.8-9.7c7.3-0.1,14.5-0.1,21.8,0C516.6,188.8,518.2,190.4,519.6,195.8z"/>
			<path class="st1" d="M592.6,211.8c0,3.3-0.1,6.6,0,9.9c0.1,2.9-1,3.1-3.2,1.8c-2.7-1.6-3.9-3.8-3.8-6.9c0.1-5.8,0-11.6,0-17.4
				c0.1-5.8,4.2-10.4,10.1-10.6c6.4-0.2,12.9-0.2,19.3,0c6.1,0.2,10.3,4.9,10.3,11c0,5.3,0,10.6,0,15.9c0,1.7,0,3.3-0.9,4.8
				c-1.2,2.1-2.9,4.3-5.3,3.7c-2.1-0.5-0.9-3.1-0.9-4.8c-0.2-5.6-0.1-11.2-0.1-16.9c0-3.9-1.6-5.8-5.7-5.7c-5,0.1-9.9,0.1-14.9,0
				c-3.5,0-5.1,1.7-5.1,5.2C592.6,205.2,592.6,208.5,592.6,211.8z"/>
			<path class="st1" d="M745,207c0-4.3,0-8.6,0-12.9c0-2.7,0.9-5.2,4-5.3c3.4-0.1,4.3,2.4,4.3,5.4c0,8.3,0,16.5-0.1,24.8
				c0,2.7-0.4,5.4-4.2,5.4c-4,0-3.9-2.8-3.9-5.5C745,214.9,745.1,211,745,207C745.1,207,745,207,745,207z"/>
		</g>
	</g>
</g>
</svg>
